<!-- Generator: Adobe Illustrator 19.2.1, SVG Export Plug-In . SVG Version: 6.00 Build 0)  -->
<svg version="1.1" xmlns="http://www.w3.org/2000/svg" xmlns:xlink="http://www.w3.org/1999/xlink" x="0px" y="0px"
	 viewBox="0 0 225 40" style="enable-background:new 0 0 225 40;" xml:space="preserve">
<style type="text/css">
	.st0{fill:#FFFFFF;}
	.st1{fill:#1E1E1E;}
	.st2{fill:#B3B3B3;}
	.st3{fill:none;stroke:#808080;stroke-miterlimit:10;}
	.st4{fill:#009CDE;}
	.st5{fill:none;stroke:#CCCCCC;stroke-miterlimit:10;}
	.st6{fill:#C8C8C8;}
	.st7{fill:#E6E6E6;}
	.st8{fill:none;stroke:#00A14B;stroke-width:0.25;stroke-miterlimit:10;}
	.st9{fill:#D6D6D6;}
	.st10{fill:#70B34A;}
	.st11{fill:#DDAA54;}
	.st12{fill:#D5655D;}
	.st13{opacity:0.9;fill:#D5D5D5;}
	.st14{fill:#C6C6C6;}
	.st15{fill:#333333;}
	.st16{fill:#231F20;}
	.st17{fill:#CCCCCC;}
	.st18{fill:#FFDE17;}
	.st19{display:none;}
	.st20{display:inline;}
	.st21{display:inline;fill:#231F20;}
	.st22{fill:#FEDB00;}
	.st23{fill:none;stroke:#B2B2B2;stroke-miterlimit:10;}
	.st24{fill:none;stroke:#B3B3B3;stroke-width:2;stroke-linecap:round;stroke-miterlimit:10;}
	.st25{opacity:0;}
	.st26{fill:#4BA84A;}
	.st27{fill:none;stroke:#666666;stroke-miterlimit:10;}
	.st28{fill:none;stroke:#666666;stroke-miterlimit:10;stroke-dasharray:2,2;}
	.st29{fill:#6CC24A;}
	.st30{fill:#0C9FDC;}
	.st31{fill:#A05EB5;}
	.st32{fill:#FFFFFF;fill-opacity:0.8;}
</style>
<g id="Layer_1">
</g>
<g id="Layer_2">
</g>
<g id="Layer_3">
	<g>
		<g>
			<g>
				<path class="st15" d="M1.7,36.9l1.8-0.3l7.8-22.3h5.3l7.7,22.3l1.8,0.3V40h-8.7v-3.1l1.8-0.3l-1.1-3.5H9.8l-1.1,3.5l1.8,0.3V40
					H1.7V36.9z M11,29.3h5.9l-2.9-9h-0.1L11,29.3z"/>
				<path class="st15" d="M40.9,14.4c2.9,0,5.2,0.8,6.9,2.3s2.5,3.5,2.5,5.9c0,2.4-0.8,4.4-2.5,5.9s-4,2.2-6.9,2.2h-4.3v5.7l2.7,0.5
					V40H28.7v-3.1l2.7-0.5V18l-2.7-0.5v-3.1h2.7H40.9z M36.6,26.8h4.3c1.4,0,2.5-0.4,3.2-1.2s1.1-1.8,1.1-3c0-1.2-0.4-2.2-1.1-3
					s-1.8-1.2-3.2-1.2h-4.3V26.8z"/>
				<path class="st15" d="M52,17.4c0-0.8,0.3-1.5,0.8-2.1s1.2-0.9,2-0.9c0.8,0,1.5,0.3,2,0.9c0.6,0.6,0.8,1.3,0.8,2.1
					c0,0.8-0.3,1.5-0.8,2.1c-0.6,0.6-1.2,0.9-2,0.9c-0.8,0-1.5-0.3-2-0.9C52.2,19,52,18.3,52,17.4z M52.4,17.4
					c0,0.7,0.2,1.3,0.7,1.8c0.5,0.5,1,0.7,1.7,0.7c0.6,0,1.2-0.2,1.7-0.7c0.5-0.5,0.7-1.1,0.7-1.8c0-0.7-0.2-1.3-0.7-1.8
					c-0.5-0.5-1-0.7-1.7-0.7c-0.7,0-1.2,0.2-1.7,0.7C52.7,16.1,52.4,16.7,52.4,17.4z M54.2,17.7v1.3h-0.6v-3.4h1.1
					c0.4,0,0.7,0.1,0.9,0.3c0.2,0.2,0.3,0.4,0.3,0.8c0,0.2,0,0.3-0.1,0.4s-0.2,0.2-0.3,0.3c0.2,0.1,0.3,0.2,0.3,0.3
					c0.1,0.1,0.1,0.3,0.1,0.5v0.2c0,0.1,0,0.2,0,0.3c0,0.1,0,0.2,0.1,0.2v0.1h-0.6c0-0.1,0-0.1,0-0.2c0-0.1,0-0.2,0-0.3v-0.2
					c0-0.2,0-0.3-0.1-0.4c-0.1-0.1-0.2-0.1-0.4-0.1H54.2z M54.2,17.2h0.5c0.2,0,0.3,0,0.5-0.1c0.1-0.1,0.2-0.2,0.2-0.3
					c0-0.2-0.1-0.3-0.2-0.4c-0.1-0.1-0.3-0.1-0.5-0.1h-0.5V17.2z"/>
				<path class="st15" d="M84.3,22.6h-3.8l-0.7-3.5c-0.4-0.3-1.1-0.5-2-0.7S76,18,75.1,18c-1.4,0-2.5,0.3-3.3,0.9s-1.2,1.4-1.2,2.3
					c0,0.9,0.4,1.6,1.2,2.1s2.2,1.1,4.2,1.8c2.8,0.8,5,1.8,6.4,3.1s2.2,3,2.2,5.1c0,2.2-0.9,3.9-2.6,5.2s-4,1.9-6.9,1.9
					c-2,0-3.9-0.3-5.5-1s-3-1.5-4.1-2.7v-5.3h4l0.5,3.6c0.5,0.4,1.2,0.8,2.1,1s1.9,0.4,3,0.4c1.4,0,2.5-0.3,3.2-0.9s1.1-1.3,1.1-2.3
					c0-1-0.3-1.8-1-2.4s-1.9-1.2-3.7-1.7c-3-0.9-5.3-1.9-6.9-3.1s-2.3-2.9-2.3-5c0-2.1,0.9-3.8,2.6-5.1s4-2,6.6-2
					c2,0,3.8,0.3,5.4,0.9s3,1.4,4.1,2.4V22.6z"/>
				<path class="st15" d="M95.3,16.3V21h3.3v3.6h-3.3v9.7c0,0.7,0.2,1.3,0.5,1.6s0.7,0.5,1.2,0.5c0.4,0,0.7,0,0.9,0s0.6-0.1,0.9-0.1
					l0.4,3.7c-0.6,0.2-1.1,0.3-1.7,0.4s-1.2,0.1-1.8,0.1c-1.8,0-3.1-0.5-4.1-1.5s-1.4-2.5-1.4-4.6v-9.7h-2.8V21h2.8v-4.7H95.3z"/>
				<path class="st15" d="M115.3,37.6c-0.6,0.9-1.4,1.6-2.3,2.1s-1.9,0.7-3.1,0.7c-2,0-3.6-0.6-4.7-1.9s-1.7-3.3-1.7-6v-7.9
					l-2.1-0.5V21h2.1h5.1v11.5c0,1.4,0.2,2.4,0.7,3s1.2,0.9,2.1,0.9c0.8,0,1.5-0.1,2.1-0.4s1.1-0.6,1.5-1.1V24.6l-2.2-0.5V21h2.2
					h5.1v15.4l2.3,0.5V40h-6.8L115.3,37.6z"/>
				<path class="st15" d="M137.7,37.7c-0.6,0.9-1.3,1.5-2.1,2s-1.7,0.7-2.8,0.7c-2.3,0-4.2-0.9-5.5-2.6s-1.9-4-1.9-6.8v-0.4
					c0-3,0.7-5.4,2-7.3s3.1-2.8,5.5-2.8c0.9,0,1.8,0.2,2.6,0.6s1.4,1,2,1.8v-6.8l-2.7-0.5v-3.1h2.7h5.1v23.8l2.5,0.5V40h-6.9
					L137.7,37.7z M130.6,31c0,1.7,0.3,3,0.8,3.9s1.5,1.4,2.7,1.4c0.8,0,1.4-0.2,2-0.5s1-0.7,1.4-1.3v-8.1c-0.4-0.6-0.8-1.1-1.3-1.4
					s-1.2-0.5-1.9-0.5c-1.3,0-2.2,0.6-2.7,1.7s-0.9,2.6-0.9,4.4V31z"/>
				<path class="st15" d="M156.7,40.4c-2.7,0-4.9-0.9-6.6-2.6s-2.5-4-2.5-6.7v-0.7c0-2.8,0.8-5.2,2.3-7s3.6-2.7,6.2-2.7
					c2.6,0,4.6,0.8,6,2.3s2.1,3.6,2.1,6.3V32H153l0,0.1c0.1,1.3,0.5,2.3,1.3,3.1s1.8,1.2,3,1.2c1.1,0,2.1-0.1,2.8-0.3
					s1.6-0.6,2.5-1.1l1.4,3.2c-0.8,0.6-1.8,1.1-3,1.6S158.2,40.4,156.7,40.4z M156.2,24.6c-0.9,0-1.7,0.4-2.2,1.1s-0.9,1.7-1,2.9
					l0.1,0.1h6.3v-0.5c0-1.1-0.3-2-0.8-2.6S157.3,24.6,156.2,24.6z"/>
				<path class="st15" d="M167.4,36.9l2.5-0.5V24.6l-2.7-0.5V21h7.5l0.2,2.7c0.6-1,1.4-1.7,2.3-2.3s2-0.8,3.1-0.8
					c1.9,0,3.4,0.6,4.5,1.8s1.6,3.1,1.6,5.7v8.3l2.5,0.5V40h-9.8v-3.1l2.2-0.5v-8.3c0-1.3-0.3-2.2-0.8-2.7s-1.3-0.8-2.3-0.8
					c-0.7,0-1.3,0.1-1.8,0.4s-1,0.7-1.4,1.2v10.2l2.1,0.5V40h-9.7V36.9z"/>
				<path class="st15" d="M199,16.3V21h3.3v3.6H199v9.7c0,0.7,0.2,1.3,0.5,1.6s0.7,0.5,1.2,0.5c0.4,0,0.7,0,0.9,0s0.6-0.1,0.9-0.1
					l0.4,3.7c-0.6,0.2-1.1,0.3-1.7,0.4s-1.2,0.1-1.8,0.1c-1.8,0-3.1-0.5-4.1-1.5s-1.4-2.5-1.4-4.6v-9.7h-2.8V21h2.8v-4.7H199z"/>
				<path class="st15" d="M221.3,27.5h-3.4l-0.5-2.4c-0.4-0.3-0.8-0.5-1.3-0.7s-1.1-0.3-1.8-0.3c-0.9,0-1.6,0.2-2.1,0.6
					s-0.8,0.9-0.8,1.5c0,0.6,0.3,1.1,0.8,1.4s1.5,0.7,3,1c2.4,0.5,4.1,1.2,5.2,2.1s1.7,2.2,1.7,3.8c0,1.7-0.7,3.1-2.2,4.2
					s-3.4,1.6-5.8,1.6c-1.5,0-2.8-0.2-4-0.6s-2.3-1-3.3-1.8l-0.1-4.3h3.6l0.7,2.5c0.3,0.3,0.7,0.4,1.2,0.6s1.1,0.2,1.7,0.2
					c1,0,1.8-0.2,2.4-0.6s0.8-0.9,0.8-1.5c0-0.6-0.3-1-0.8-1.5s-1.6-0.8-3-1.1c-2.2-0.5-3.9-1.1-5.1-2s-1.7-2.1-1.7-3.7
					c0-1.6,0.7-3,2-4.1s3.2-1.7,5.6-1.7c1.5,0,2.9,0.2,4.2,0.6s2.4,0.9,3.1,1.5L221.3,27.5z"/>
			</g>
		</g>
	</g>
</g>
</svg>
